<svg width="25" height="25" viewBox="0 0 25 25" fill="none" xmlns="http://www.w3.org/2000/svg">
<path d="M3.97021 7.95715L12.8002 13.0671L21.5702 7.98712" stroke="#0F374C" stroke-width="1.5" stroke-linecap="round" stroke-linejoin="round"/>
<path d="M12.8003 22.1271V13.0571" stroke="#0F374C" stroke-width="1.5" stroke-linecap="round" stroke-linejoin="round"/>
<path d="M10.7304 2.99715L5.39041 5.96718C4.18041 6.63718 3.19043 8.31716 3.19043 9.69716V15.3472C3.19043 16.7272 4.18041 18.4072 5.39041 19.0772L10.7304 22.0472C11.8704 22.6772 13.7404 22.6772 14.8804 22.0472L20.2204 19.0772C21.4304 18.4072 22.4204 16.7272 22.4204 15.3472V9.69716C22.4204 8.31716 21.4304 6.63718 20.2204 5.96718L14.8804 2.99715C13.7304 2.35715 11.8704 2.35715 10.7304 2.99715Z" stroke="#0F374C" stroke-width="1.5" stroke-linecap="round" stroke-linejoin="round"/>
<path d="M17.8005 13.7571V10.0972L8.31055 4.61713" stroke="#0F374C" stroke-width="1.5" stroke-linecap="round" stroke-linejoin="round"/>
</svg>
