<svg width="24" height="25" viewBox="0 0 24 25" fill="none" xmlns="http://www.w3.org/2000/svg">
<path d="M21.97 18.3464C21.97 18.7064 21.89 19.0764 21.72 19.4364C21.55 19.7964 21.33 20.1364 21.04 20.4564C20.55 20.9964 20.01 21.3864 19.4 21.6364C18.8 21.8864 18.15 22.0164 17.45 22.0164C16.43 22.0164 15.34 21.7764 14.19 21.2864C13.04 20.7964 11.89 20.1364 10.75 19.3064C9.6 18.4664 8.51 17.5364 7.47 16.5064C6.44 15.4664 5.51 14.3764 4.68 13.2364C3.86 12.0964 3.2 10.9564 2.72 9.82642C2.24 8.68642 2 7.59642 2 6.55642C2 5.87642 2.12 5.22642 2.36 4.62642C2.6 4.01642 2.98 3.45642 3.51 2.95642C4.15 2.32642 4.85 2.01642 5.59 2.01642C5.87 2.01642 6.15 2.07642 6.4 2.19642C6.66 2.31642 6.89 2.49642 7.07 2.75642L9.39 6.02642C9.57 6.27642 9.7 6.50642 9.79 6.72642C9.88 6.93642 9.93 7.14642 9.93 7.33642C9.93 7.57642 9.86 7.81642 9.72 8.04642C9.59 8.27642 9.4 8.51642 9.16 8.75642L8.4 9.54642C8.29 9.65642 8.24 9.78642 8.24 9.94642C8.24 10.0264 8.25 10.0964 8.27 10.1764C8.3 10.2564 8.33 10.3164 8.35 10.3764C8.53 10.7064 8.84 11.1364 9.28 11.6564C9.73 12.1764 10.21 12.7064 10.73 13.2364C11.27 13.7664 11.79 14.2564 12.32 14.7064C12.84 15.1464 13.27 15.4464 13.61 15.6264C13.66 15.6464 13.72 15.6764 13.79 15.7064C13.87 15.7364 13.95 15.7464 14.04 15.7464C14.21 15.7464 14.34 15.6864 14.45 15.5764L15.21 14.8264C15.46 14.5764 15.7 14.3864 15.93 14.2664C16.16 14.1264 16.39 14.0564 16.64 14.0564C16.83 14.0564 17.03 14.0964 17.25 14.1864C17.47 14.2764 17.7 14.4064 17.95 14.5764L21.26 16.9264C21.52 17.1064 21.7 17.3164 21.81 17.5664C21.91 17.8164 21.97 18.0664 21.97 18.3464Z" stroke="#53A6D2" stroke-width="1.5" stroke-miterlimit="10"/>
</svg>
