<svg width="24" height="25" viewBox="0 0 24 25" fill="none" xmlns="http://www.w3.org/2000/svg">
<path d="M14.53 9.4864L9.47004 14.5464C8.82004 13.8964 8.42004 13.0064 8.42004 12.0164C8.42004 10.0364 10.02 8.4364 12 8.4364C12.99 8.4364 13.88 8.8364 14.53 9.4864Z" stroke="#B91616" stroke-width="1.5" stroke-linecap="round" stroke-linejoin="round"/>
<path d="M17.82 5.7864C16.07 4.4664 14.07 3.7464 12 3.7464C8.46997 3.7464 5.17997 5.8264 2.88997 9.4264C1.98997 10.8364 1.98997 13.2064 2.88997 14.6164C3.67997 15.8564 4.59997 16.9264 5.59997 17.7864" stroke="#B91616" stroke-width="1.5" stroke-linecap="round" stroke-linejoin="round"/>
<path d="M8.42004 19.5464C9.56004 20.0264 10.77 20.2864 12 20.2864C15.53 20.2864 18.82 18.2064 21.11 14.6064C22.01 13.1964 22.01 10.8264 21.11 9.41641C20.78 8.89641 20.42 8.40641 20.05 7.94641" stroke="#B91616" stroke-width="1.5" stroke-linecap="round" stroke-linejoin="round"/>
<path d="M15.5099 12.7164C15.2499 14.1264 14.0999 15.2764 12.6899 15.5364" stroke="#B91616" stroke-width="1.5" stroke-linecap="round" stroke-linejoin="round"/>
<path d="M9.47 14.5464L2 22.0164" stroke="#B91616" stroke-width="1.5" stroke-linecap="round" stroke-linejoin="round"/>
<path d="M22 2.01642L14.53 9.48642" stroke="#B91616" stroke-width="1.5" stroke-linecap="round" stroke-linejoin="round"/>
</svg>
