<svg width="40" height="40" viewBox="0 0 40 40" fill="none" xmlns="http://www.w3.org/2000/svg">
<rect x="0.5" y="0.5" width="39" height="39" rx="19.5" fill="#F5F5F5"/>
<rect x="0.5" y="0.5" width="39" height="39" rx="19.5" stroke="#8C8C8C" stroke-dasharray="2 2"/>
<path d="M10.29 15.78V25.51C10.29 27.41 11.64 28.19 13.28 27.25L15.63 25.91C16.14 25.62 16.99 25.59 17.52 25.86L22.77 28.49C23.3 28.75 24.15 28.73 24.66 28.44L28.99 25.96C29.54 25.64 30 24.86 30 24.22V14.49C30 12.59 28.65 11.81 27.01 12.75L24.66 14.09C24.15 14.38 23.3 14.41 22.77 14.14L17.52 11.52C16.99 11.26 16.14 11.28 15.63 11.57L11.3 14.05C10.74 14.37 10.29 15.15 10.29 15.78Z" stroke="#292D32" stroke-width="1.5" stroke-linecap="round" stroke-linejoin="round"/>
<path d="M16.5601 12V25" stroke="#292D32" stroke-width="1.5" stroke-linecap="round" stroke-linejoin="round"/>
<path d="M23.73 14.62V28" stroke="#292D32" stroke-width="1.5" stroke-linecap="round" stroke-linejoin="round"/>
</svg>
