<svg width="20" height="19" viewBox="0 0 20 19" fill="none" xmlns="http://www.w3.org/2000/svg">
<path d="M1.1875 6.17639H2.5C2.60312 6.17639 2.6875 6.09202 2.6875 5.98889V1.86389H6.8125C6.91563 1.86389 7 1.77952 7 1.67639V0.363892C7 0.260767 6.91563 0.176392 6.8125 0.176392H2.59375C1.7125 0.176392 1 0.888892 1 1.77014V5.98889C1 6.09202 1.08437 6.17639 1.1875 6.17639ZM13.1875 1.86389H17.3125V5.98889C17.3125 6.09202 17.3969 6.17639 17.5 6.17639H18.8125C18.9156 6.17639 19 6.09202 19 5.98889V1.77014C19 0.888892 18.2875 0.176392 17.4062 0.176392H13.1875C13.0844 0.176392 13 0.260767 13 0.363892V1.67639C13 1.77952 13.0844 1.86389 13.1875 1.86389ZM6.8125 16.4889H2.6875V12.3639C2.6875 12.2608 2.60312 12.1764 2.5 12.1764H1.1875C1.08437 12.1764 1 12.2608 1 12.3639V16.5826C1 17.4639 1.7125 18.1764 2.59375 18.1764H6.8125C6.91563 18.1764 7 18.092 7 17.9889V16.6764C7 16.5733 6.91563 16.4889 6.8125 16.4889ZM18.8125 12.1764H17.5C17.3969 12.1764 17.3125 12.2608 17.3125 12.3639V16.4889H13.1875C13.0844 16.4889 13 16.5733 13 16.6764V17.9889C13 18.092 13.0844 18.1764 13.1875 18.1764H17.4062C18.2875 18.1764 19 17.4639 19 16.5826V12.3639C19 12.2608 18.9156 12.1764 18.8125 12.1764ZM19.1875 8.33264H0.8125C0.709375 8.33264 0.625 8.41702 0.625 8.52014V9.83264C0.625 9.93577 0.709375 10.0201 0.8125 10.0201H19.1875C19.2906 10.0201 19.375 9.93577 19.375 9.83264V8.52014C19.375 8.41702 19.2906 8.33264 19.1875 8.33264Z" fill="white"/>
</svg>
