<svg width="25" height="25" viewBox="0 0 25 25" fill="none" xmlns="http://www.w3.org/2000/svg">
<path d="M12.4 15.1764C14.0707 15.1764 15.425 13.8332 15.425 12.1764C15.425 10.5195 14.0707 9.17639 12.4 9.17639C10.7293 9.17639 9.375 10.5195 9.375 12.1764C9.375 13.8332 10.7293 15.1764 12.4 15.1764Z" stroke="#292D32" stroke-width="1.5" stroke-miterlimit="10" stroke-linecap="round" stroke-linejoin="round"/>
<path d="M2.31641 13.0564V11.2964C2.31641 10.2564 3.17349 9.39639 4.23224 9.39639C6.05732 9.39639 6.80349 8.11639 5.88591 6.54639C5.36157 5.64639 5.67416 4.47639 6.59174 3.95639L8.33616 2.96639C9.13274 2.49639 10.1612 2.77639 10.6352 3.56639L10.7461 3.75639C11.6536 5.32639 13.1459 5.32639 14.0635 3.75639L14.1744 3.56639C14.6483 2.77639 15.6768 2.49639 16.4734 2.96639L18.2178 3.95639C19.1354 4.47639 19.448 5.64639 18.9237 6.54639C18.0061 8.11639 18.7522 9.39639 20.5773 9.39639C21.626 9.39639 22.4932 10.2464 22.4932 11.2964V13.0564C22.4932 14.0964 21.6361 14.9564 20.5773 14.9564C18.7522 14.9564 18.0061 16.2364 18.9237 17.8064C19.448 18.7164 19.1354 19.8764 18.2178 20.3964L16.4734 21.3864C15.6768 21.8564 14.6483 21.5764 14.1744 20.7864L14.0635 20.5964C13.156 19.0264 11.6637 19.0264 10.7461 20.5964L10.6352 20.7864C10.1612 21.5764 9.13274 21.8564 8.33616 21.3864L6.59174 20.3964C5.67416 19.8764 5.36157 18.7064 5.88591 17.8064C6.80349 16.2364 6.05732 14.9564 4.23224 14.9564C3.17349 14.9564 2.31641 14.0964 2.31641 13.0564Z" stroke="#292D32" stroke-width="1.5" stroke-miterlimit="10" stroke-linecap="round" stroke-linejoin="round"/>
</svg>
