<svg width="40" height="40" viewBox="0 0 40 40" fill="none" xmlns="http://www.w3.org/2000/svg">
<rect x="0.5" y="0.5" width="39" height="39" rx="19.5" fill="#F5F5F5"/>
<rect x="0.5" y="0.5" width="39" height="39" rx="19.5" stroke="black" stroke-dasharray="2 2"/>
<path d="M11.0098 19.22V23.71C11.0098 28.2 12.8098 30 17.2998 30H22.6898C27.1798 30 28.9798 28.2 28.9798 23.71V19.22" stroke="#989898" stroke-width="1.5" stroke-linecap="round" stroke-linejoin="round"/>
<path d="M20.0005 20C21.8305 20 23.1805 18.51 23.0005 16.68L22.3405 10H17.6705L17.0005 16.68C16.8205 18.51 18.1705 20 20.0005 20Z" stroke="#989898" stroke-width="1.5" stroke-linecap="round" stroke-linejoin="round"/>
<path d="M26.3098 20C28.3298 20 29.8098 18.36 29.6098 16.35L29.3298 13.6C28.9698 11 27.9698 10 25.3498 10H22.2998L22.9998 17.01C23.1698 18.66 24.6598 20 26.3098 20Z" stroke="#989898" stroke-width="1.5" stroke-linecap="round" stroke-linejoin="round"/>
<path d="M13.6404 20C15.2904 20 16.7804 18.66 16.9404 17.01L17.1604 14.8L17.6404 10H14.5904C11.9704 10 10.9704 11 10.6104 13.6L10.3404 16.35C10.1404 18.36 11.6204 20 13.6404 20Z" stroke="#989898" stroke-width="1.5" stroke-linecap="round" stroke-linejoin="round"/>
<path d="M20 25C18.33 25 17.5 25.83 17.5 27.5V30H22.5V27.5C22.5 25.83 21.67 25 20 25Z" stroke="#989898" stroke-width="1.5" stroke-linecap="round" stroke-linejoin="round"/>
</svg>
