<svg width="25" height="25" viewBox="0 0 25 25" fill="none" xmlns="http://www.w3.org/2000/svg">
<path d="M22.2002 12.1764V17.1764C22.2002 20.1764 20.2002 22.1764 17.2002 22.1764H7.2002C4.2002 22.1764 2.2002 20.1764 2.2002 17.1764V12.1764C2.2002 9.45639 3.8402 7.55639 6.3902 7.23639C6.6502 7.19639 6.9202 7.17639 7.2002 7.17639H17.2002C17.4602 7.17639 17.7102 7.18638 17.9502 7.22638C20.5302 7.52638 22.2002 9.43639 22.2002 12.1764Z" stroke="#484C52" stroke-width="1.5" stroke-linecap="round" stroke-linejoin="round"/>
<path d="M17.9516 7.22639C17.7116 7.18639 17.4616 7.1764 17.2016 7.1764H7.2016C6.9216 7.1764 6.6516 7.1964 6.3916 7.2364C6.5316 6.9564 6.7316 6.6964 6.9716 6.4564L10.2216 3.19639C11.5916 1.83639 13.8116 1.83639 15.1816 3.19639L16.9316 4.96641C17.5716 5.59641 17.9116 6.39639 17.9516 7.22639Z" stroke="#484C52" stroke-width="1.5" stroke-linecap="round" stroke-linejoin="round"/>
<path d="M22.2002 12.6764H19.2002C18.1002 12.6764 17.2002 13.5764 17.2002 14.6764C17.2002 15.7764 18.1002 16.6764 19.2002 16.6764H22.2002" stroke="#484C52" stroke-width="1.5" stroke-linecap="round" stroke-linejoin="round"/>
</svg>
